<svg
              className="project-icon"
              id="Calque_1"
              xmlns="http://www.w3.org/2000/svg"
              viewBox="0 0 652 549.73"
            >
              <defs />
              <path
                d="M500,674.87c-56.07,0-84.9-33.65-84.9-33.65v32c-20.83-11.21-44.86-41.65-44.86-41.65l8,32c-25.63-14.42-70.49-67.28-70.49-67.28l8,25.63c-133-110.54-81.7-225.88-81.7-225.88C192.42,400.93,174,374.5,174,374.5c57.67-6.41,104.13-89.71,104.13-89.71s-48.86-60.08-.8-124.16c0,0-4.81-6.4-22.43,6.41,0,0,27.23-48.06,86.51-28.83,0,0-9.62-14.42-20.83-12.82,0,0,43.25-6.41,65.68,44.86,0,0,47.11-28,95.92-21.61,0,0,6.61-.82,17.82,5.59a135.06,135.06,0,0,1,14.42-4.81l3.4-.78c48.81-6.4,95.92,21.61,95.92,21.61,22.43-51.27,65.68-44.86,65.68-44.86-11.21-1.6-20.83,12.82-20.83,12.82C717.87,119,745.1,167,745.1,167c-17.62-12.81-22.43-6.41-22.43-6.41,48.06,64.08-.8,124.16-.8,124.16S768.33,368.09,826,374.5c0,0-18.42,26.43-60.07,21.62,0,0,51.26,115.34-81.7,225.88l8-25.63s-44.86,52.86-70.49,67.28l8-32s-24,30.44-44.86,41.65v-32s-28.83,33.65-84.9,33.65"
                transform="translate(-174 -125.13)"
              />
              <path
                className="cls-1"
                fill="#fcffff"
                d="M500,266.36c-28.84,35.25-76.89-22.42-100.92-22.42s-46.46,25.63-46.46,25.63c4.81-8,28.83-6.41,28.83-6.41l1.61,6.41s-44.86,40.05-46.46,70.48,40,33.65,40,33.65c-6.41,14.41-40,22.42-40,22.42,28.83,6.41,67.28-11.21,67.28-11.21-3.2,11.21,4.81,20.83,4.81,20.83-24,19.22-24,123.35-24,123.35l-14.42-25.64C355.82,559.52,395.87,622,395.87,622,367,606,339.8,548.31,339.8,548.31L343,596.37c-54.47-41.65-67.29-134.57-67.29-134.57-12.81,19.23,0,73.69,0,73.69-62.47-78.49-8-165-8-165-14.41,6.41-51.26,6.41-51.26,6.41s64.08-46.46,81.7-91.31c17.32-44.1,96.57-134.63,198.17-113.34l2.08,1.2c104.13-25.63,185.83,67.28,203.45,112.14s81.7,91.31,81.7,91.31-36.85,0-51.26-6.41c0,0,54.46,86.51-8,165,0,0,12.81-54.46,0-73.69,0,0-12.82,92.92-67.29,134.57l3.21-48.06S633,606,604.13,622c0,0,40-62.48,25.63-118.55l-14.42,25.64s0-104.13-24-123.35c0,0,8-9.62,4.81-20.83,0,0,38.45,17.62,67.28,11.21,0,0-33.64-8-40-22.42,0,0,41.65-3.21,40-33.65s-46.46-70.48-46.46-70.48l1.61-6.41s24-1.6,28.83,6.41c0,0-22.43-25.63-46.46-25.63S528.84,301.61,500,266.36"
                transform="translate(-174 -125.13)"
              />
              <path
                className="cls-2"
                fill="#bdc5c8"
                d="M660.2,548.31S633,606,604.13,622c0,0,40-62.48,25.63-118.55l-14.42,25.64s0-104.13-24-123.35c0,0,8-9.62,4.81-20.83,0,0,35.24,30.44,41.65,52.86a262.67,262.67,0,0,0-22.43-19.22S652.19,490.64,649,535.49c0,0,36.85-36.84,38.45-84.9,0,0,8,27.23,8,46.46,0,0,35.24-70.49,12.82-149,0,0,20.82,16,44.85,22.43s30.44,6.41,30.44,6.41-36.85,0-51.26-6.41c0,0,54.46,86.51-8,165,0,0,12.81-54.46,0-73.69,0,0-12.82,92.92-67.29,134.57l3.21-48.06"
                transform="translate(-174 -125.13)"
              />
              <path
                className="cls-2"
                fill="#bdc5c8"
                d="M339.8,548.31S367,606,395.87,622c0,0-40.05-62.48-25.63-118.55l14.42,25.64s0-104.13,24-123.35c0,0-8-9.62-4.81-20.83,0,0-35.24,30.44-41.65,52.86a262.67,262.67,0,0,1,22.43-19.22S347.81,490.64,351,535.49c0,0-36.85-36.84-38.45-84.9,0,0-8,27.23-8,46.46,0,0-35.24-70.49-12.82-149,0,0-20.82,16-44.85,22.43s-30.44,6.41-30.44,6.41,36.85,0,51.26-6.41c0,0-54.46,86.51,8,165,0,0-12.81-54.46,0-73.69,0,0,12.82,92.92,67.29,134.57l-3.21-48.06"
                transform="translate(-174 -125.13)"
              />
              <path
                className="cls-1"
                fill="#fcffff"
                d="M416.7,391.32s-16-62.48,40.05-84.91l-1.61,14.42s-3.2,9.61,20.83,12.82,17.62,19.22,17.62,19.22-6.41,12.82-20.82,11.21c0,0-32-4.8-41.65,1.61S418.3,383.31,416.7,391.32Z"
                transform="translate(-174 -125.13)"
              />
              <path
                className="cls-2"
                fill="#bdc5c8"
                d="M416.7,391.32c1.6-8,4.8-19.23,14.42-25.63s41.65-1.61,41.65-1.61c14.41,1.61,20.82-11.21,20.82-11.21s6.41-16-17.62-19.22-20.83-12.82-20.83-12.82,0,14.42,9.62,16c4.8.8,4.8,3.6,3.6,6.21a9.64,9.64,0,0,1-7.71,5.37c-9.48,1.09-32.49,5.29-37.54,20.46C416.7,388.11,416.7,391.32,416.7,391.32Z"
                transform="translate(-174 -125.13)"
              />
              <path
                className="cls-2"
                fill="#bdc5c8"
                d="M584.08,391.32c-1.6-8-4.81-19.23-14.42-25.63S528,364.08,528,364.08c-14.42,1.61-20.83-11.21-20.83-11.21s-6.4-16,17.62-19.22,20.83-12.82,20.83-12.82,0,14.42-9.61,16c-4.81.8-4.81,3.6-3.61,6.21a9.64,9.64,0,0,0,7.71,5.37c9.49,1.09,32.49,5.29,37.55,20.46C584.08,388.11,584.08,391.32,584.08,391.32Z"
                transform="translate(-174 -125.13)"
              />
              <path
                className="cls-2"
                fill="#bdc5c8"
                d="M464.76,312.82s1.6-16,35.24-16,30.44,16,30.44,16-9.61-8-30.44-8S471.16,306.41,464.76,312.82Z"
                transform="translate(-174 -125.13)"
              />
              <path
                className="cls-3"
                fill="#0c1821"
                d="M427.91,300s-4.8-11.22-19.22-9.62-20.83,14.42-20.83,14.42,3.21,3.21,11.22,3.21S418.3,309.62,427.91,300Z"
                transform="translate(-174 -125.13)"
              />
              <path
                className="cls-1"
                fill="#fcffff"
                d="M445.53,434.57s-12.81-25.63-9.61-43.25c0,0,64.08-19.23,126.56,0,0,0,3.2,22.42-8,43.25,0,0-4.81-20.83-9.61-30.44l-4.81,4.81s-51.26-4.81-78.5,0l-4.8-6.41S448.74,413.74,445.53,434.57Z"
                transform="translate(-174 -125.13)"
              />
              <path
                className="cls-1"
                fill="#fcffff"
                d="M448.74,505.06s4.8,25.63,14.41,32v-9.62s44.86,9.62,73.7,0v9.62a123.68,123.68,0,0,0,14.41-32s11.22,17.62,8,38.44c0,0-56.07,24-118.54,0C440.73,543.5,435.92,522.68,448.74,505.06Z"
                transform="translate(-174 -125.13)"
              />
              <path
                className="cls-2"
                fill="#bdc5c8"
                d="M500,655.64c-68.88,0-72.09-73.69-72.09-73.69s14.42,33.64,36.85,43.25c0,0-11.22-6.4-9.62-22.42,0,0,8,19.22,44.86,19.22s44.86-19.22,44.86-19.22c1.6,16-9.62,22.42-9.62,22.42,22.43-9.61,36.85-43.25,36.85-43.25s-3.21,73.69-72.09,73.69"
                transform="translate(-174 -125.13)"
              />
              <path
                className="cls-1"
                fill="#fcffff"
                d="M583.3,391.32s16-62.48-40-84.91l1.61,14.42s3.2,9.61-20.83,12.82-17.62,19.22-17.62,19.22,6.41,12.82,20.82,11.21c0,0,32-4.8,41.65,1.61S581.7,383.31,583.3,391.32Z"
                transform="translate(-174 -125.13)"
              />
              <path
                className="cls-3"
                fill="#0c1821"
                d="M572.09,300s4.8-11.22,19.22-9.62,20.83,14.42,20.83,14.42S608.93,308,600.92,308,581.7,309.62,572.09,300Z"
                transform="translate(-174 -125.13)"
              />
              <path
                className="cls-4"
                fill="none"
                stroke="#000"
                strokeMiterlimit="10"
                d="M501.6,173.45"
                transform="translate(-174 -125.13)"
              />
              <path
                className="cls-2"
                fill="#bdc5c8"
                d="M347.81,195.88,359,186.27s-30.44-51.27-76.9-12.82C282.13,173.45,333.4,154.23,347.81,195.88Z"
                transform="translate(-174 -125.13)"
              />
              <path
                className="cls-2"
                fill="#bdc5c8"
                d="M653.79,195.88l-11.22-9.61S673,135,719.47,173.45C719.47,173.45,668.21,154.23,653.79,195.88Z"
                transform="translate(-174 -125.13)"
              />
            </svg>